<mxfile host="app.diagrams.net" agent="Mozilla/5.0 (Windows NT 10.0; Win64; x64) AppleWebKit/537.36 (KHTML, like Gecko) Chrome/141.0.0.0 Safari/537.36" version="28.2.7">
  <diagram name="Page-1" id="T0wvP1Fpmj4WxDNIoSBc">
    <mxGraphModel dx="653" dy="647" grid="1" gridSize="10" guides="1" tooltips="1" connect="1" arrows="1" fold="1" page="1" pageScale="1" pageWidth="850" pageHeight="1100" math="0" shadow="0">
      <root>
        <mxCell id="0" />
        <mxCell id="1" parent="0" />
        <mxCell id="kl_2JBBVk9ZGrSJpYDUz-2" style="edgeStyle=orthogonalEdgeStyle;rounded=0;orthogonalLoop=1;jettySize=auto;html=1;exitX=0;exitY=0.5;exitDx=0;exitDy=0;" edge="1" parent="1" source="kl_2JBBVk9ZGrSJpYDUz-1" target="kl_2JBBVk9ZGrSJpYDUz-3">
          <mxGeometry relative="1" as="geometry">
            <mxPoint x="410" y="180" as="targetPoint" />
            <Array as="points">
              <mxPoint x="400" y="340" />
              <mxPoint x="400" y="170" />
            </Array>
          </mxGeometry>
        </mxCell>
        <mxCell id="kl_2JBBVk9ZGrSJpYDUz-5" style="edgeStyle=orthogonalEdgeStyle;rounded=0;orthogonalLoop=1;jettySize=auto;html=1;entryX=1;entryY=0.5;entryDx=0;entryDy=0;exitX=0;exitY=0.5;exitDx=0;exitDy=0;" edge="1" parent="1" source="kl_2JBBVk9ZGrSJpYDUz-1" target="kl_2JBBVk9ZGrSJpYDUz-4">
          <mxGeometry relative="1" as="geometry">
            <Array as="points">
              <mxPoint x="400" y="340" />
              <mxPoint x="400" y="310" />
            </Array>
          </mxGeometry>
        </mxCell>
        <mxCell id="kl_2JBBVk9ZGrSJpYDUz-1" value="Question Service" style="rounded=0;whiteSpace=wrap;html=1;" vertex="1" parent="1">
          <mxGeometry x="600" y="310" width="120" height="60" as="geometry" />
        </mxCell>
        <mxCell id="kl_2JBBVk9ZGrSJpYDUz-3" value="&lt;font style=&quot;font-size: 16px;&quot;&gt;GET /questions&lt;/font&gt;&lt;div&gt;&lt;font&gt;returns list of questions, with optional parameters to filter by&lt;br&gt;&lt;/font&gt;&lt;div&gt;&lt;div&gt;&lt;span style=&quot;font-size: 16px;&quot;&gt;&lt;br&gt;&lt;/span&gt;&lt;div&gt;query parameters:&lt;/div&gt;&lt;div&gt;topic, difficulty, search&lt;/div&gt;&lt;/div&gt;&lt;/div&gt;&lt;/div&gt;" style="rounded=0;whiteSpace=wrap;html=1;" vertex="1" parent="1">
          <mxGeometry x="220" y="50" width="160" height="160" as="geometry" />
        </mxCell>
        <mxCell id="kl_2JBBVk9ZGrSJpYDUz-4" value="&lt;font style=&quot;font-size: 16px;&quot;&gt;GET /questions/random&lt;/font&gt;&lt;div&gt;&lt;font&gt;returns a randomly selected question that matches the selected topics + difficulty&lt;br&gt;&lt;/font&gt;&lt;div&gt;&lt;div&gt;&lt;span style=&quot;font-size: 16px;&quot;&gt;&lt;br&gt;&lt;/span&gt;&lt;div&gt;query parameters:&lt;/div&gt;&lt;div&gt;topic, difficulty&lt;/div&gt;&lt;/div&gt;&lt;/div&gt;&lt;/div&gt;" style="rounded=0;whiteSpace=wrap;html=1;" vertex="1" parent="1">
          <mxGeometry x="220" y="230" width="160" height="160" as="geometry" />
        </mxCell>
        <mxCell id="kl_2JBBVk9ZGrSJpYDUz-6" value="&lt;font style=&quot;font-size: 16px;&quot;&gt;GET /questions/:id&lt;/font&gt;&lt;div&gt;&lt;font&gt;returns the question by id&lt;br&gt;&lt;/font&gt;&lt;div&gt;&lt;span style=&quot;font-size: 16px;&quot;&gt;&lt;br&gt;&lt;/span&gt;&lt;div&gt;url parameters:&lt;/div&gt;&lt;div&gt;id&lt;/div&gt;&lt;/div&gt;&lt;/div&gt;" style="rounded=0;whiteSpace=wrap;html=1;" vertex="1" parent="1">
          <mxGeometry x="220" y="410" width="160" height="160" as="geometry" />
        </mxCell>
        <mxCell id="kl_2JBBVk9ZGrSJpYDUz-7" style="edgeStyle=orthogonalEdgeStyle;rounded=0;orthogonalLoop=1;jettySize=auto;html=1;entryX=1;entryY=0.563;entryDx=0;entryDy=0;entryPerimeter=0;exitX=0;exitY=0.5;exitDx=0;exitDy=0;" edge="1" parent="1" source="kl_2JBBVk9ZGrSJpYDUz-8" target="kl_2JBBVk9ZGrSJpYDUz-6">
          <mxGeometry relative="1" as="geometry">
            <Array as="points">
              <mxPoint x="400" y="340" />
              <mxPoint x="400" y="500" />
            </Array>
          </mxGeometry>
        </mxCell>
        <mxCell id="kl_2JBBVk9ZGrSJpYDUz-8" value="Authentication Middleware" style="rounded=0;whiteSpace=wrap;html=1;" vertex="1" parent="1">
          <mxGeometry x="440" y="310" width="120" height="60" as="geometry" />
        </mxCell>
      </root>
    </mxGraphModel>
  </diagram>
</mxfile>
